# File created by Blade
# Date/Time:  Thu Jan 22 16:31:11 2015
# Frame Rate: 120.000 fps
#------------------------------------------------------
:FULLY-SPECIFIED
:DEGREES
1077
root 3.407784 37.641025 1.494363 -7.901527 -0.293368 -2.056922
RightUpLeg 2.157282 -1.817765 -2.845293
RightLeg 18.149972 -0.000000 -0.000000
RightFoot -22.183516 -17.578740 19.935633
RightToeBase 2.208177 -0.000000 -0.000000
LeftUpLeg 5.923060 -8.502152 0.070531
LeftLeg 11.617887 -0.000000 -0.000000
LeftFoot -13.357453 15.071567 -17.129693
LeftToeBase 9.027190 -0.000000 -0.000000
Spine 20.795368 -6.547235 -0.750085
RightShoulder -4.054631 -13.200801 -26.748647
RightArm 12.690213 25.364343 35.898884
RightForeArm 16.929967 -0.000000 21.916175
RightHand 4.183033 0.000000 -15.777419
RightHandThumb1 -24.326973 -0.000000 -32.862282
LeftShoulder -23.236023 30.831278 15.593718
LeftArm 44.481959 -45.894496 -57.885805
LeftForeArm 30.619011 0.000000 30.351398
LeftHand -22.502281 -0.000000 2.136297
LeftHandThumb1 -26.253704 0.000000 33.147579
Head -18.133521 10.589320 3.176502
1078
root 3.365291 37.665082 1.503545 -7.922685 -0.402926 -2.339889
RightUpLeg 2.064165 -1.391828 -2.235504
RightLeg 18.797924 -0.000000 -0.000000
RightFoot -22.419442 -16.909265 20.102334
RightToeBase 2.086989 -0.000000 -0.000000
LeftUpLeg 6.103565 -8.652979 0.371159
LeftLeg 11.369462 -0.000000 -0.000000
LeftFoot -13.326554 15.323708 -17.191258
LeftToeBase 9.045466 -0.000000 -0.000000
Spine 20.817549 -6.600827 -0.694369
RightShoulder -4.071341 -13.135024 -26.730396
RightArm 12.753825 25.259945 35.919957
RightForeArm 16.716712 -0.000000 21.533870
RightHand 4.016080 -0.000000 -15.268742
RightHandThumb1 -24.326973 -0.000000 -32.862282
LeftShoulder -23.265334 30.811620 15.774554
LeftArm 44.641211 -46.220715 -58.049947
LeftForeArm 30.805433 -0.000000 29.894033
LeftHand -22.514097 -0.000000 2.118677
LeftHandThumb1 -26.253704 0.000000 33.147579
Head -17.990219 10.835735 3.262530
1079
root 3.324052 37.688472 1.513664 -7.935934 -0.483477 -2.597920
RightUpLeg 2.011540 -1.048673 -1.643752
RightLeg 19.368308 -0.000000 -0.000000
RightFoot -22.601311 -16.384676 20.133807
RightToeBase 1.870398 -0.000000 -0.000000
LeftUpLeg 6.286129 -8.805888 0.651489
LeftLeg 11.097695 -0.000000 -0.000000
LeftFoot -13.276472 15.533418 -17.241594
LeftToeBase 9.108129 -0.000000 -0.000000
Spine 20.819406 -6.649660 -0.640377
RightShoulder -4.095665 -13.038139 -26.682023
RightArm 12.753995 25.207873 35.891329
RightForeArm 16.393884 -0.000000 21.206117
RightHand 3.762266 -0.000000 -14.502430
RightHandThumb1 -24.326973 -0.000000 -32.862282
LeftShoulder -23.279699 30.758884 15.935050
LeftArm 44.877244 -46.569520 -58.237856
LeftForeArm 31.000474 -0.000000 29.350549
LeftHand -22.369566 0.000000 1.968050
LeftHandThumb1 -26.253704 0.000000 33.147579
Head -17.833627 10.916703 3.333965
1080
root 3.291085 37.707542 1.527358 -7.955733 -0.578567 -2.757075
RightUpLeg 1.922989 -0.691312 -1.165930
RightLeg 20.043450 -0.000000 -0.000000
RightFoot -22.830259 -15.875149 20.399321
RightToeBase 1.711220 -0.000000 -0.000000
LeftUpLeg 6.493953 -8.908157 0.828917
LeftLeg 10.797771 -0.000000 -0.000000
LeftFoot -13.193716 15.720440 -17.316261
LeftToeBase 9.119772 -0.000000 -0.000000
Spine 20.811773 -6.674646 -0.693522
RightShoulder -4.140751 -12.936830 -26.635360
RightArm 12.780187 25.157026 35.909335
RightForeArm 16.157418 -0.000000 20.929760
RightHand 3.541525 -0.000000 -13.851532
RightHandThumb1 -24.326973 -0.000000 -32.862282
LeftShoulder -23.318488 30.687462 16.104961
LeftArm 45.083469 -46.855489 -58.353033
LeftForeArm 31.160015 0.000000 28.753363
LeftHand -22.526680 -0.000000 2.038350
LeftHandThumb1 -26.253704 0.000000 33.147579
Head -17.660934 10.947678 3.416520
1081
root 3.254981 37.724231 1.544875 -7.972225 -0.681088 -2.895825
RightUpLeg 1.921182 -0.417050 -0.721935
RightLeg 20.536044 -0.000000 -0.000000
RightFoot -22.924148 -15.647914 20.414767
RightToeBase 1.682273 -0.000000 -0.000000
LeftUpLeg 6.729444 -8.952725 1.005480
LeftLeg 10.448900 -0.000000 -0.000000
LeftFoot -13.104975 15.848891 -17.377438
LeftToeBase 9.127148 -0.000000 -0.000000
Spine 20.763237 -6.667419 -0.751771
RightShoulder -4.186987 -12.910513 -26.572694
RightArm 12.839858 25.100019 35.903025
RightForeArm 15.974493 -0.000000 20.597096
RightHand 3.485729 -0.000000 -13.313437
RightHandThumb1 -24.326973 -0.000000 -32.862282
LeftShoulder -23.339866 30.622245 16.275534
LeftArm 45.189449 -47.077036 -58.290491
LeftForeArm 31.181661 -0.000000 28.111013
LeftHand -22.451193 -0.000000 2.088026
LeftHandThumb1 -26.253704 0.000000 33.147579
Head -17.410997 10.995121 3.500794
1082
root 3.225181 37.738550 1.565674 -8.001732 -0.725518 -2.989564
RightUpLeg 2.014583 -0.237314 -0.352537
RightLeg 20.855341 -0.000000 -0.000000
RightFoot -22.985361 -15.604816 20.343025
RightToeBase 1.407640 -0.000000 -0.000000
LeftUpLeg 6.962885 -8.947241 1.137692
LeftLeg 10.120698 -0.000000 -0.000000
LeftFoot -13.001875 15.881380 -17.413510
LeftToeBase 9.201418 -0.000000 -0.000000
Spine 20.705982 -6.713418 -0.840505
RightShoulder -4.192785 -12.872401 -26.564598
RightArm 12.826558 25.146948 35.971594
RightForeArm 15.756789 -0.000000 20.409445
RightHand 3.291312 -0.000000 -12.998665
RightHandThumb1 -24.326973 -0.000000 -32.862282
LeftShoulder -23.351915 30.506229 16.437397
LeftArm 45.335861 -47.300607 -58.254033
LeftForeArm 31.280810 -0.000000 27.381991
LeftHand -22.689568 0.000000 2.207632
LeftHandThumb1 -26.253704 0.000000 33.147579
Head -17.111268 11.146526 3.585915
1083
root 3.197750 37.749745 1.593249 -8.039639 -0.784512 -3.033554
RightUpLeg 2.182108 -0.089545 -0.047512
RightLeg 21.020700 -0.000000 -0.000000
RightFoot -23.069539 -15.966799 19.889490
RightToeBase 1.780082 -0.000000 -0.000000
LeftUpLeg 7.248779 -8.909722 1.217282
LeftLeg 9.727382 -0.000000 -0.000000
LeftFoot -12.854812 15.926657 -17.406705
LeftToeBase 9.234959 -0.000000 -0.000000
Spine 20.628815 -6.729755 -0.973837
RightShoulder -4.209109 -12.788899 -26.517415
RightArm 12.786315 25.117111 35.958848
RightForeArm 15.646409 0.000000 20.178667
RightHand 3.168256 -0.000000 -12.512717
RightHandThumb1 -24.326973 -0.000000 -32.862282
LeftShoulder -23.362107 30.524183 16.584873
LeftArm 45.559961 -47.563213 -58.304720
LeftForeArm 31.263960 -0.000000 26.670703
LeftHand -22.726509 -0.000000 2.494321
LeftHandThumb1 -26.253704 0.000000 33.147579
Head -16.775385 11.226077 3.665917
1084
root 3.174740 37.757764 1.623238 -8.066793 -0.830111 -3.058132
RightUpLeg 2.381873 -0.062449 0.208695
RightLeg 21.092716 -0.000000 -0.000000
RightFoot -23.131957 -16.162378 19.834474
RightToeBase 1.579940 -0.000000 -0.000000
LeftUpLeg 7.529515 -8.820902 1.285024
LeftLeg 9.327520 -0.000000 -0.000000
LeftFoot -12.715402 15.896328 -17.395064
LeftToeBase 9.245701 -0.000000 -0.000000
Spine 20.513759 -6.742816 -1.084479
RightShoulder -4.261707 -12.852953 -26.506023
RightArm 12.878935 25.114061 36.003064
RightForeArm 15.710097 -0.000000 19.884181
RightHand 3.178224 0.000000 -12.364326
RightHandThumb1 -24.326973 -0.000000 -32.862282
LeftShoulder -23.370855 30.472693 16.718116
LeftArm 45.758096 -47.772210 -58.310173
LeftForeArm 31.439367 -0.000000 25.950613
LeftHand -22.795207 -0.000000 2.614722
LeftHandThumb1 -26.253704 0.000000 33.147579
Head -16.400721 11.261854 3.710962
1085
root 3.154435 37.762802 1.653793 -8.087735 -0.825714 -3.052516
RightUpLeg 2.660194 -0.065177 0.428417
RightLeg 20.976314 -0.000000 -0.000000
RightFoot -23.449682 -16.476588 19.893587
RightToeBase 2.414214 -0.000000 -0.000000
LeftUpLeg 7.811074 -8.764169 1.314502
LeftLeg 8.897367 -0.000000 -0.000000
LeftFoot -12.563556 15.865743 -17.348826
LeftToeBase 9.303191 -0.000000 -0.000000
Spine 20.381357 -6.779155 -1.213000
RightShoulder -4.301338 -12.857268 -26.485772
RightArm 12.836277 25.134078 36.004343
RightForeArm 15.806083 -0.000000 19.718633
RightHand 3.118800 -0.000000 -12.151633
RightHandThumb1 -24.326973 -0.000000 -32.862282
LeftShoulder -23.382976 30.544267 16.803808
LeftArm 46.053619 -48.006235 -58.341439
LeftForeArm 31.390754 -0.000000 25.204640
LeftHand -22.884682 -0.000000 2.837293
LeftHandThumb1 -26.253704 0.000000 33.147579
Head -16.004621 11.185318 3.746464
